<?xml version="1.0" standalone="no"?>
<!DOCTYPE svg PUBLIC "-//W3C//DTD SVG 20010904//EN"
 "http://www.w3.org/TR/2001/REC-SVG-20010904/DTD/svg10.dtd">
<svg version="1.0" xmlns="http://www.w3.org/2000/svg"
 width="600.000000pt" height="600.000000pt" viewBox="0 0 600.000000 600.000000"
 preserveAspectRatio="xMidYMid meet">
<metadata>
Created by potrace 1.11, written by Peter Selinger 2001-2013
</metadata>
<g transform="translate(0.000000,600.000000) scale(0.100000,-0.100000)"
fill="#000000" stroke="none">
<path d="M454 5766 c-19 -14 -19 -39 -20 -1266 -1 -1171 1 -1253 17 -1273 l17
-22 1148 0 c1138 0 1149 0 1170 20 20 20 20 22 20 1273 -1 1229 -1 1254 -20
1268 -30 21 -2302 21 -2332 0z m2241 -1269 c1 -639 -2 -1164 -6 -1167 -6 -4
-2097 -5 -2134 -1 -7 1 -10 395 -10 1166 l0 1165 1075 0 1075 0 0 -1163z"/>
<path d="M3157 5762 c-16 -17 -17 -115 -17 -1228 0 -665 0 -1228 0 -1251 0
-85 -112 -78 1189 -78 1123 1 1153 1 1167 20 12 16 14 216 14 1270 0 1200 -1
1253 -18 1268 -17 16 -113 17 -1169 17 -1103 0 -1151 -1 -1166 -18z m2241
-1269 l-3 -1167 -1073 0 -1072 -1 0 1168 0 1167 1075 0 1075 0 -2 -1167z"/>
<path d="M471 2838 c-11 -4 -23 -13 -27 -20 -5 -7 -9 -574 -10 -1260 0 -1204
0 -1249 18 -1268 19 -20 31 -20 1168 -20 1096 0 1151 1 1168 18 17 17 18 76
18 1270 -1 1186 -2 1252 -19 1269 -17 17 -78 18 -1158 18 -627 0 -1148 -3
-1158 -7z m2220 -118 c1 -3 2 -528 3 -1167 l1 -1163 -1075 0 -1075 0 1 1168
c1 642 2 1167 3 1167 0 0 482 0 1071 0 588 0 1071 -2 1071 -5z"/>
<path d="M3158 2828 c-17 -17 -18 -65 -18 -720 -1 -1755 -1 -1800 17 -1820 15
-17 70 -18 1169 -18 l1153 0 15 22 c14 20 16 157 16 1270 0 1242 0 1248 -20
1266 -19 16 -92 17 -1168 17 -1079 0 -1148 -1 -1164 -17z m2240 -1271 l2
-1167 -1075 0 -1075 0 0 1163 c0 640 2 1166 4 1168 2 2 485 4 1073 4 l1068 0
3 -1168z"/>
</g>
</svg>
